<svg xmlns="http://www.w3.org/2000/svg" height="800" width="1200" viewBox="-33.787095 -15.48095 292.82149 92.8857"><path d="M25.3636 12.9138c3.98 10.0988-2.5088 16.58-8.9713 23.0725-6.015 6.6325-11.3137 13.5275-.6562 25.9375-3.9825-10.0962 2.5075-16.5812 8.965-23.065 6.0212-6.6487 11.3187-13.5337.6625-25.945" fill="#ef3e42"/><path d="M15.736 0c3.985 10.1013-2.5012 16.5787-8.9687 23.0675-6.0137 6.64-11.3112 13.535-.65 25.9425-3.9837-10.1037 2.505-16.58 8.9663-23.0687 6.0175-6.64 11.31-13.5325.6525-25.9413m163.5362 39.9925v20.6413h9.04v-7.5563h9.9338v-4.5187h-9.9338v-4.0475h19.705v16.1225h9.0413V44.5113h8.1887v-4.5188M159.876 56.1538v-3.5787h11.7888v-4.5213h-11.7887v-3.5437h15.1412v-4.5188h-24.1812v20.6413h24.3675v-4.4788" fill="#00b274"/><path d="M64.5298 39.9925h-25.05v4.5188h8.005v16.1225h9.0413V44.5113h8.0037m6.8462 8.3l4.1826-7.9887 4.0037 7.9887zm11.0038-12.82h-9.69L61.4061 60.6326h5.8762l1.855-3.5438h12.67l1.8488 3.5438h10.0125" fill="#ef3e42"/><path d="M139.7448 39.9925V50.31l-14.4575-10.3175h-7.0175v20.64h6.1888V49.2763l14.845 11.3562h6.6275v-20.64" fill="#00b274"/><path d="M115.1986 39.9925H90.6723v4.5188h8.0038v16.1225h9.0425V44.5113h7.48" fill="#ef3e42"/></svg>