<!-- icon666.com - MILLIONS vector ICONS FREE --><svg version="1.1" id="Capa_1" xmlns="http://www.w3.org/2000/svg" xmlns:xlink="http://www.w3.org/1999/xlink" x="0px" y="0px" viewBox="0 0 512.001 512.001" style="enable-background:new 0 0 512.001 512.001;" xml:space="preserve"><g><g><path d="M128,287.723H64c-5.891,0-10.667,4.776-10.667,10.667v202.667c0,5.891,4.776,10.667,10.667,10.667h64 c5.891,0,10.667-4.776,10.667-10.667V298.389C138.667,292.499,133.891,287.723,128,287.723z M117.334,490.389L117.334,490.389 H74.667V309.056h42.667V490.389z"></path></g></g><g><g><rect x="85.33" y="298.394" width="21.333" height="64"></rect></g></g><g><g><path d="M448,138.389h-64c-5.891,0-10.667,4.776-10.667,10.667v352c0,5.891,4.776,10.667,10.667,10.667h64 c5.891,0,10.667-4.776,10.667-10.667v-352C458.667,143.165,453.891,138.389,448,138.389z M437.333,490.389h-42.667V159.723h42.667 V490.389z"></path></g></g><g><g><rect x="405.33" y="149.053" width="21.333" height="117.33"></rect></g></g><g><g><path d="M490.667,469.056v21.333H352v-96c-0.035-29.441-23.893-53.298-53.333-53.333h-85.333 c-29.441,0.035-53.298,23.893-53.333,53.333v96H21.333v-21.333H0v32c0,5.891,4.776,10.667,10.667,10.667h160 c5.891,0,10.667-4.776,10.667-10.667V394.389c0-17.673,14.327-32,32-32h85.333c17.673,0,32,14.327,32,32v106.667 c0,5.891,4.776,10.667,10.667,10.667h160c5.891,0,10.667-4.776,10.667-10.667v-32H490.667z"></path></g></g><g><g><path d="M259.595,202.389h-7.189c-1.53,0-3.058,0.076-4.58,0.228c-25.294,2.527-43.75,25.081-41.223,50.375l3.595,35.947 c2.28,23.568,22.125,41.528,45.803,41.451c23.678,0.077,43.523-17.883,45.803-41.451l3.595-35.947 c0.152-1.522,0.228-3.051,0.228-4.58C305.623,222.993,285.014,202.387,259.595,202.389z M284.213,250.869l-3.595,35.947 c-1.191,11.657-10.408,20.873-22.064,22.064c-13.573,1.387-25.7-8.491-27.088-22.064l-3.595-35.947 c-0.08-0.803-0.121-1.609-0.122-2.416c-0.021-13.638,11.018-24.71,24.655-24.731h7.189c0.835-0.002,1.67,0.039,2.501,0.122 C275.666,225.199,285.568,237.3,284.213,250.869z"></path></g></g><g><g><rect x="245.33" y="351.723" width="21.333" height="32"></rect></g></g><g><g><rect x="245.33" y="405.053" width="21.333" height="106.67"></rect></g></g><g><g><rect x="202.67" y="405.053" width="21.333" height="21.333"></rect></g></g><g><g><path d="M435.263,25.397c-3.487-4.748-10.164-5.77-14.911-2.282L270.549,132.981l-15.669-31.36 c-0.26-0.521-0.562-1.02-0.903-1.492c-3.453-4.773-10.121-5.844-14.894-2.391l-192,138.667l12.501,17.301l181.824-131.317 l15.712,31.435c0.272,0.545,0.59,1.066,0.95,1.557c3.487,4.748,10.163,5.77,14.911,2.283L416,52.779v42.944h21.333v-64 C437.336,29.447,436.61,27.23,435.263,25.397z"></path></g></g><g><g><rect x="383.997" y="-12.676" transform="matrix(0.3162 -0.9487 0.9487 0.3162 249.8892 388.8099)" width="21.323" height="67.471"></rect></g></g></svg>