<!-- icon666.com - MILLIONS vector ICONS FREE --><svg clip-rule="evenodd" fill-rule="evenodd" stroke-linejoin="round" stroke-miterlimit="2" viewBox="0 0 356 356" xmlns="http://www.w3.org/2000/svg" xmlns:xlink="http://www.w3.org/1999/xlink"><linearGradient id="_Linear1" gradientTransform="matrix(227.778 122.222 -122.222 227.778 55.556 88.889)" gradientUnits="userSpaceOnUse" x1="0" x2="1" y1="0" y2="0"><stop offset="0" stop-color="#ffd367"></stop><stop offset="1" stop-color="#f69d18"></stop></linearGradient><linearGradient id="_Linear2" gradientTransform="matrix(222.222 116.667 -116.667 222.222 61.111 94.444)" gradientUnits="userSpaceOnUse" x1="0" x2="1" y1="0" y2="0"><stop offset="0" stop-color="#ffbd56"></stop><stop offset="1" stop-color="#ff781b"></stop></linearGradient><linearGradient id="_Linear6" gradientTransform="matrix(238.095 237.302 -237.302 238.095 19.346 45.933)" gradientUnits="userSpaceOnUse" x1="0" x2="1" y1="0" y2="0"><stop offset="0" stop-color="#477294"></stop><stop offset="1" stop-color="#1c3d57"></stop></linearGradient><linearGradient id="lg1"><stop offset="0" stop-color="#3dd2c0"></stop><stop offset="1" stop-color="#0cafa0"></stop></linearGradient><linearGradient id="_Linear8" gradientTransform="matrix(22.222 27.778 -27.778 22.222 244.444 283.333)" gradientUnits="userSpaceOnUse" x1="0" x2="1" xlink:href="#lg1" y1="0" y2="0"></linearGradient><linearGradient id="_Linear9" gradientUnits="userSpaceOnUse" x1="94.444" x2="133.333" xlink:href="#lg1" y1="297.222" y2="297.222"></linearGradient><g id="Exp-5.-S"><g><path d="m56.349 94.444h232.045c6.818 0 13.258 3.13 17.471 8.49 4.214 5.36 5.733 12.358 4.122 18.983-6.11 25.133-14.902 61.293-19.663 80.876-2.055 8.452-8.852 14.928-17.394 16.572l-193.417 37.224z" fill="url(#_Linear1)" style="fill: rgb(0, 91, 81);"></path><g fill="url(#_Linear2)"><path d="m175 94.444v143.837l11.111-2.05v-141.787z" fill="url(#_Linear2)" style="fill: rgb(213, 179, 179);"></path><path d="m111.537 94.444 10.978 153.935 10.972-2.058-11.28-151.877z" fill="url(#_Linear2)" style="fill: rgb(213, 179, 179);"></path><path d="m241.453 94.587-9.746 132.737 11.255-2.087 9.612-130.715z" fill="url(#_Linear2)" style="fill: rgb(213, 179, 179);"></path><path d="m70.452 172.222h227.478l2.259-11.111h-229.737c-3.066 0-5.555 2.489-5.555 5.556 0 3.066 2.489 5.555 5.555 5.555z" fill="url(#_Linear2)" style="fill: rgb(213, 179, 179);"></path></g><path d="m21.746 55.158s13.651 5.46 21.814 8.726c1.845.738 3.155 2.405 3.436 4.372 0 0 26.975 188.825 26.975 188.825.434 3.035 3.25 5.148 6.285 4.714 3.036-.434 5.148-3.25 4.714-6.285-6.657-46.6-24.012-168.088-26.975-188.825-.843-5.902-4.774-10.904-10.309-13.118-8.162-3.265-21.813-8.725-21.813-8.725-2.847-1.139-6.083.248-7.222 3.095-1.138 2.847.248 6.082 3.095 7.221z" fill="url(#_Linear6)" style="fill: rgb(221, 192, 192);"></path><path d="m74.019 257.42 1.089 7.619c1.955 13.685 13.675 23.85 27.498 23.85h152.95c3.066 0 5.555-2.489 5.555-5.556 0-3.066-2.489-5.555-5.555-5.555h-152.949c-8.295 0-15.327-6.099-16.5-14.31 0 0-1.088-7.62-1.088-7.62-.434-3.035-3.25-5.147-6.286-4.714-3.035.434-5.147 3.25-4.714 6.286z" fill="url(#_Linear6)" style="fill: rgb(221, 192, 192);"></path><circle cx="254.63" cy="297.222" fill="url(#_Linear8)" r="19.444" style="fill: rgb(0, 91, 81);"></circle><circle cx="113.889" cy="297.222" fill="url(#_Linear9)" r="19.444" style="fill: rgb(0, 91, 81);"></circle></g></g></svg>