<!-- icon666.com - MILLIONS vector ICONS FREE --><svg clip-rule="evenodd" fill-rule="evenodd" image-rendering="optimizeQuality" shape-rendering="geometricPrecision" text-rendering="geometricPrecision" viewBox="0 0 6.82666 6.82666" xmlns="http://www.w3.org/2000/svg"><g id="Layer_x0020_1"><g id="_216383112"><path id="_216383640" d="m1.05495 1.18993s-.785791 4.36941 2.35836 5.21892c3.1442-.849508 2.35851-5.21892 2.35851-5.21892-1.45083-.027185-2.34437-.772114-2.35851-.772114-.0140157-.00000394-.907524.744929-2.35836.77211zm.380028.412441c.708724-.0677638 1.37246-.292142 1.97833-.665831.606028.373807 1.26987.598067 1.97885.665957.0623307.588071.0391142 1.27402-.0485157 1.80834-.194591 1.18626-.742976 2.17569-1.93033 2.54633-1.17955-.368201-1.729-1.34715-1.92693-2.52634-.0912717-.543705-.114567-1.23319-.0514331-1.82845h.00003543z" fill="#dbd7de"></path><path id="_216383688" d="m3.41334.936539c-.605886.373685-1.26965.598067-1.97839.665831-.0630906.595264-.0398504 1.28475.0514331 1.82845.197933 1.17919.747378 2.15814 1.92693 2.52634 1.18739-.370638 1.7357-1.36007 1.93033-2.54633.0876457-.534323.110799-1.22027.0485157-1.80834-.708969-.0678898-1.37287-.29215-1.97882-.665957z" fill="#7b9651"></path><g fill="#282829"><path id="_216383232" d="m1.47765 1.64515c-.0568189.571618-.0366142 1.23306.0549213 1.77787.221941 1.32301.854744 2.15911 1.88074 2.48514 1.03152-.327736 1.66525-1.17042 1.88415-2.50489.0874409-.532744.107016-1.20235.0520433-1.758-.689669-.0716654-1.3408-.291539-1.93619-.653768-.595217.362228-1.24623.582102-1.93566.653646zm1.93569 4.35881c-.00465748 0-.00941339-.00073228-.0139252-.0020748-1.07071-.334319-1.72985-1.19674-1.95923-2.56339-.0948189-.564795-.114197-1.25306-.0517953-1.84101.00233071-.022185.0198661-.0394882.0420472-.0416811.698898-.0669173 1.35774-.288614 1.95838-.65913.0151457-.00926378.0340039-.00926378.0491142 0 .600768.370516 1.25975.592339 1.95862.65913.022189.00219291.0397323.019622.0421732.0416811.0604803.570642.0417953 1.26841-.048874 1.82089-.226087 1.37835-.886441 2.24748-1.96252 2.5835-.00449213.00134252-.00925984.0020748-.0139843.0020748z"></path><path id="_216382536" d="m2.7452 4.36625c-.00027165 0-.00064961.00000394-.00089764.00000394-.0127598-.00024409-.0248583-.00572835-.0335157-.0151142l-.408906-.443764c-.0175512-.0190157-.0163307-.0486339.00268504-.0661811.0190315-.0175512.0486299-.0163346.0661811.00279921l.375882.407937 1.7107-1.71072c.0183228-.0182795.0479016-.0182795.0661811.00000394.0182835.0182835.0182835.0478976 0 .0661811l-1.74519 1.74521c-.00877559.00877559-.0207323.0136496-.0331299.0136457z"></path><path id="_216382608" d="m1.09483 1.23575c-.0314843.201957-.166543 1.18566.00677953 2.2398.257303 1.56458 1.03501 2.53499 2.3117 2.88479 1.27745-.349921 2.05526-1.32119 2.3122-2.88711.172854-1.0539.0379016-2.03577.00633071-2.23748-1.13772-.0310787-1.93888-.488248-2.31853-.761138-.379512.272886-1.18078.730063-2.31848.761138zm2.31851 5.2199c-.004 0-.00819685-.00060236-.0122165-.00170079-.727988-.196598-1.30717-.597827-1.72107-1.19224-.330024-.473866-.55589-1.07047-.671193-1.77336-.19561-1.1926-.00195276-2.29574 0-2.30671.0040315-.0219409.0229094-.0381457.0452205-.0385118 1.13499-.0212126 1.9323-.476433 2.30658-.745909.0301417-.0216969.0363228-.0262047.0526535-.0262047.0164843-.00000394.0226614.00450787.0527756.0262047.374177.269476 1.17152.724697 2.30659.745909.0223071.00036221.0411969.0165709.0452165.0385118.00199213.0109685.195492 1.11411-.00012205 2.30671-.115146.702886-.341024 1.29949-.671071 1.77336-.413874.594413-.993091.995642-1.72107 1.19224-.004.00109843-.00816535.00170079-.0122835.00170079z"></path></g></g></g></svg>