<!-- icon666.com - MILLIONS vector ICONS FREE --><svg xmlns="http://www.w3.org/2000/svg" xmlns:xlink="http://www.w3.org/1999/xlink" xml:space="preserve" version="1.1" style="shape-rendering:geometricPrecision; text-rendering:geometricPrecision; image-rendering:optimizeQuality; fill-rule:evenodd; clip-rule:evenodd" viewBox="0 0 1707 1707"><defs><style type="text/css"> .fil0 {fill:black} </style></defs><g id="Layer_x0020_1"><metadata id="CorelCorpID_0Corel-Layer"></metadata><g id="_337843408"><g><g><path class="fil0" d="M1508 1707l-1309 0c-14,0 -25,-11 -25,-25l0 -1657c0,-14 11,-25 25,-25l1309 0c14,0 25,11 25,25l0 1657c0,14 -11,25 -25,25zm-1286 -49l1261 0 0 -1608 -1261 0 0 1608z"></path></g><g><path class="fil0" d="M1383 1547l-1058 0c-14,0 -25,-11 -25,-25l0 -1338c0,-14 11,-25 25,-25l1058 0c14,0 25,11 25,25l0 279c0,14 -11,25 -25,25 -14,0 -25,-11 -25,-25l0 -254 -1009 0 0 1290 1009 0 0 -237c0,-14 11,-25 25,-25 14,0 25,11 25,25l0 262c-1,12 -12,23 -25,23zm0 -484c-14,0 -25,-11 -25,-25l0 -352c0,-14 11,-25 25,-25 14,0 25,11 25,25l0 352c-1,14 -12,25 -25,25z"></path></g><g><path class="fil0" d="M1383 711c-39,0 -71,-32 -71,-71l0 -130c0,-39 32,-71 71,-71 39,0 71,32 71,71l0 130c0,39 -32,71 -71,71zm0 -223c-11,0 -22,10 -22,22l0 130c0,13 10,23 22,23 13,0 22,-10 22,-23l0 -130c0,-12 -9,-22 -22,-22z"></path></g><g><path class="fil0" d="M1158 903l-607 0c-8,0 -17,-5 -21,-12 -4,-6 -4,-16 -1,-23l304 -608c4,-8 12,-13 22,-13 0,0 0,0 0,0 9,0 18,5 22,13l305 608c4,7 3,17 -1,23 -5,7 -14,12 -23,12zm-570 -49l530 0 -265 -528 -265 528z"></path></g><g><path class="fil0" d="M833 1129l-343 0c-14,0 -25,-11 -25,-25 0,-14 11,-25 25,-25l343 0c13,0 24,11 24,25 0,14 -11,25 -24,25z"></path></g><g><path class="fil0" d="M833 1251l-343 0c-14,0 -25,-11 -25,-25 0,-14 11,-25 25,-25l343 0c13,0 24,11 24,25 0,14 -11,25 -24,25z"></path></g><g><path class="fil0" d="M833 1371l-343 0c-14,0 -25,-11 -25,-25 0,-14 11,-25 25,-25l343 0c13,0 24,11 24,25 0,14 -11,25 -24,25z"></path></g><g><path class="fil0" d="M1063 1208c-43,0 -78,-35 -78,-78 0,-43 35,-78 78,-78 43,0 77,35 77,78 0,43 -34,78 -77,78zm0 -107c-17,0 -29,12 -29,29 0,17 12,29 29,29 16,0 29,-12 29,-29 0,-17 -13,-29 -29,-29z"></path></g><g><path class="fil0" d="M1063 1388c-43,0 -78,-35 -78,-78 0,-43 35,-77 78,-77 43,0 77,34 77,77 0,43 -34,78 -77,78zm0 -108c-17,0 -29,12 -29,29 0,17 13,29 29,29 15,0 29,-14 29,-29 1,-15 -13,-29 -29,-29z"></path></g><g><path class="fil0" d="M1383 1287c-37,0 -71,-32 -71,-71l0 -130c0,-39 32,-71 71,-71 40,0 71,30 71,71l0 130c0,39 -32,71 -71,71zm0 -224c-12,0 -22,10 -22,23l0 130c0,11 10,22 22,22 13,0 22,-10 22,-22l0 -130c0,-13 -9,-23 -22,-23z"></path></g><g><path class="fil0" d="M837 826c-4,0 -9,-1 -13,-2 -11,-7 -15,-23 -8,-34l51 -87 -66 0c-9,0 -17,-4 -21,-13 -4,-7 -4,-16 0,-23l84 -149c7,-11 21,-15 34,-9 11,7 15,21 9,33l-63 112 66 0c9,0 17,4 21,13 4,8 4,16 0,25l-72 123c-6,7 -14,11 -22,11z"></path></g></g></g></g></svg>