<?xml version="1.0" ?>
<!-- Uploaded to: SVG Repo, www.svgrepo.com, Generator: SVG Repo Mixer Tools -->
<svg width="800px" height="800px" viewBox="0 0 64 64" id="Layer_1" version="1.1" xml:space="preserve" xmlns="http://www.w3.org/2000/svg" xmlns:xlink="http://www.w3.org/1999/xlink">
<style type="text/css">
	.st0{fill:#7D828C;}
	.st1{fill:#9F3A37;}
	.st2{fill:#BF7D2C;}
	.st3{fill:#A6A6A6;}
	.st4{fill:#5C6373;}
	.st5{fill:#DC8729;}
</style>
<g id="Layer_14">
<polyline class="st0" points="26,58 26,54 22,54 22,58  "/>
<polyline class="st0" points="44,58 44,54 40,54 40,58  "/>
<polyline class="st0" points="22,28 22,32 26,32 26,28  "/>
<polyline class="st0" points="2,28 2,32 6,32 6,28  "/>
<polyline class="st0" points="40,28 40,32 44,32 44,28  "/>
<polyline class="st0" points="2,24 2,14 12,14 16,18 16,24  "/>
<polyline class="st1" points="50,20 50,2 34,2 34,20  "/>
<rect class="st1" height="4" width="16" x="2" y="42"/>
<rect class="st2" height="12" width="12" x="4" y="46"/>
<polyline class="st3" points="8,58 8,50 12,50 12,58  "/>
<rect class="st4" height="4" width="52" x="2" y="24"/>
<rect class="st4" height="4" width="60" x="2" y="58"/>
<polygon class="st2" points="60,58 60,35 57,32 54,32 54,58  "/>
<rect class="st1" height="2" width="3" x="54" y="36"/>
<rect class="st1" height="2" width="3" x="54" y="40"/>
<rect class="st1" height="2" width="3" x="54" y="44"/>
<rect class="st1" height="4" width="6" x="54" y="54"/>
<rect class="st4" height="22" width="4" x="40" y="32"/>
<rect class="st4" height="22" width="4" x="22" y="32"/>
<rect class="st4" height="10" width="4" x="2" y="32"/>
<path class="st2" d="M45.5,10.9c0.7,0.9,0.7,2.2,0.1,3.1c-1.3,2-4,2.5-6,1.2c-0.5-0.3-0.9-0.7-1.2-1.2c-0.6-1-0.5-2.2,0.1-3.1L42,6   L45.5,10.9z"/>
<rect class="st5" height="4" width="20" x="32" y="20"/>
<polygon class="st4" points="16,18 2,18 2,14 12,14  "/>
</g>
</svg>