<?xml version="1.0" standalone="no"?>
<!DOCTYPE svg PUBLIC "-//W3C//DTD SVG 20010904//EN"
 "http://www.w3.org/TR/2001/REC-SVG-20010904/DTD/svg10.dtd">
<svg version="1.0" xmlns="http://www.w3.org/2000/svg"
 width="560.000000pt" height="519.000000pt" viewBox="0 0 560.000000 519.000000"
 preserveAspectRatio="xMidYMid meet">

<g transform="translate(0.000000,519.000000) scale(0.100000,-0.100000)"
fill="#000000" stroke="none">
<path d="M2020 5175 c-643 -110 -1172 -546 -1406 -1158 -71 -186 -103 -355
-111 -587 -13 -410 107 -794 353 -1127 69 -93 222 -253 313 -327 157 -127 369
-246 549 -306 l102 -35 0 -157 0 -158 -205 0 -205 0 0 165 0 165 -85 0 -85 0
0 -165 0 -165 -80 0 -80 0 0 165 0 165 -85 0 -85 0 0 -165 0 -165 -330 0 -330
0 0 -85 0 -85 330 0 330 0 0 -285 0 -285 -330 0 -330 0 0 -85 0 -85 330 0 330
0 0 -165 0 -165 85 0 85 0 0 165 0 165 80 0 80 0 0 -165 0 -165 85 0 85 0 0
165 0 165 825 0 825 0 0 -67 c1 -108 47 -189 135 -236 l40 -22 980 0 980 0 48
28 c54 32 102 92 117 148 7 24 9 480 8 1326 l-3 1288 -22 40 c-28 52 -68 89
-123 114 -43 20 -63 21 -584 21 l-538 0 5 23 c31 127 32 431 3 607 -64 377
-238 714 -511 986 -279 277 -609 446 -995 510 -108 17 -474 17 -580 -1z m538
-161 c53 -8 131 -24 172 -34 571 -146 1034 -610 1181 -1183 59 -233 68 -508
23 -724 l-4 -23 -333 0 c-208 0 -347 -4 -371 -11 -53 -15 -138 -100 -154 -155
-7 -23 -12 -69 -12 -103 l0 -61 -785 0 -785 0 0 -80 0 -80 785 0 785 0 0 -85
0 -85 -85 0 -85 0 0 -80 0 -80 85 0 85 0 -2 -162 -3 -163 -88 -37 c-214 -92
-409 -132 -647 -131 -173 0 -253 9 -410 49 -585 146 -1050 611 -1194 1194 -36
144 -49 251 -48 410 1 283 53 496 184 750 210 409 594 720 1033 837 201 53
477 69 673 37z m2591 -2135 c17 -6 36 -19 41 -29 6 -12 10 -479 10 -1286 l0
-1268 -22 -23 -21 -23 -939 0 c-594 0 -946 4 -958 10 -10 5 -23 24 -29 41 -8
23 -11 391 -11 1266 0 1334 -2 1291 52 1313 35 13 1837 13 1877 -1z m-2089
-1359 l0 -200 -125 0 -125 0 0 158 0 158 72 23 c39 13 90 31 112 41 23 10 47
19 54 19 9 1 12 -45 12 -199z m-745 50 c83 0 189 6 237 14 l88 13 2 -221 3
-221 208 -3 207 -2 0 -285 0 -285 -825 0 -825 0 0 285 0 285 285 0 285 0 0
218 c0 120 2 221 5 224 3 2 44 -1 93 -8 48 -8 155 -14 237 -14z m-1075 -705
l0 -285 -80 0 -80 0 0 285 0 285 80 0 80 0 0 -285z"/>
<path d="M2230 4705 l0 -165 85 0 85 0 0 165 0 165 -85 0 -85 0 0 -165z"/>
<path d="M1750 4759 c-36 -16 -69 -30 -73 -31 -6 -3 104 -286 118 -306 1 -1
36 12 78 30 l76 31 -15 36 c-9 20 -36 86 -61 146 -25 61 -48 113 -51 116 -4 3
-36 -7 -72 -22z"/>
<path d="M2742 4633 l-61 -148 58 -26 c102 -47 89 -56 156 107 33 80 61 149
63 153 3 8 -124 61 -144 61 -6 0 -39 -66 -72 -147z"/>
<path d="M1260 4435 l-55 -55 118 -118 117 -117 57 58 58 57 -115 115 c-63 63
-117 115 -120 115 -3 0 -30 -25 -60 -55z"/>
<path d="M3190 4375 l-115 -115 58 -57 57 -58 115 115 115 115 -58 58 -57 57
-115 -115z"/>
<path d="M2700 3885 l-215 -215 -53 20 c-119 45 -257 16 -348 -74 -189 -189
-88 -507 177 -556 137 -25 284 50 350 180 33 66 38 187 10 260 l-21 55 215
215 215 215 -58 58 -57 57 -215 -215z m-310 -358 c30 -16 51 -37 67 -67 28
-52 29 -91 4 -146 -50 -110 -202 -126 -276 -30 -61 80 -35 196 55 243 55 29
95 29 150 0z"/>
<path d="M941 3953 c-17 -42 -30 -77 -28 -78 9 -7 300 -125 302 -123 11 13 62
149 57 152 -4 2 -56 24 -117 49 -60 25 -126 53 -146 61 l-37 15 -31 -76z"/>
<path d="M3540 3980 c-63 -26 -132 -54 -152 -63 l-38 -16 31 -73 c17 -40 32
-74 34 -76 2 -2 292 116 302 123 2 1 -56 147 -61 151 0 1 -53 -20 -116 -46z"/>
<path d="M830 3385 l0 -85 165 0 166 0 -3 83 -3 82 -162 3 -163 2 0 -85z"/>
<path d="M3470 3385 l0 -85 165 0 165 0 0 85 0 85 -165 0 -165 0 0 -85z"/>
<path d="M1060 2954 c-74 -31 -138 -59 -142 -62 -5 -6 44 -137 56 -149 2 -2
296 115 303 121 6 5 -62 146 -71 146 -6 -1 -72 -26 -146 -56z"/>
<path d="M1490 2310 l0 -80 620 0 620 0 0 80 0 80 -620 0 -620 0 0 -80z"/>
<path d="M3390 2145 l0 -575 825 0 825 0 0 575 0 575 -825 0 -825 0 0 -575z
m1480 0 l0 -415 -660 0 -660 0 0 408 c0 225 3 412 7 415 3 4 300 7 660 7 l653
0 0 -415z"/>
<path d="M3720 1980 l0 -80 330 0 330 0 0 80 0 80 -330 0 -330 0 0 -80z"/>
<path d="M4540 1980 l0 -80 85 0 85 0 0 80 0 80 -85 0 -85 0 0 -80z"/>
<path d="M3390 910 l0 -330 330 0 330 0 0 330 0 330 -330 0 -330 0 0 -330z
m490 -5 l0 -165 -165 0 -165 0 0 165 0 165 165 0 165 0 0 -165z"/>
<path d="M4380 910 l0 -330 330 0 330 0 0 330 0 330 -330 0 -330 0 0 -330z
m490 -5 l0 -165 -165 0 -165 0 0 165 0 165 165 0 165 0 0 -165z"/>
</g>
</svg>
