<!-- icon666.com - MILLIONS vector ICONS FREE --><svg version="1.1" id="Capa_1" xmlns="http://www.w3.org/2000/svg" xmlns:xlink="http://www.w3.org/1999/xlink" x="0px" y="0px" viewBox="0 0 480 480" style="enable-background:new 0 0 480 480;" xml:space="preserve"><g><g><path d="M480,252h-64v-32h-48v16h-32v16h-24v-24h16v-48h-56v-32h26.576l23.864-16H456V76H317.6l-24.328,16H272V76 c0-13.255-10.745-24-24-24h-16c-13.255,0-24,10.745-24,24v16h-24v56h24v32h-56v48h16v24h-24v-16h-32v-16H64v32H0v144h64v32h48v-16 h32v-16h192v16h32v16h48v-32h64V252z M224,76c0-4.418,3.582-8,8-8h16c4.418,0,8,3.582,8,8v16h-32V76z M200,132v-24h8h64h26.064 L322.4,92H440v24H317.6l-23.896,16H272h-64H200z M224,148h32v32h-32V148z M168,196h40h64h40v16h-8H176h-8V196z M16,380V268h48v112 H16z M80,412v-16V252v-16h16v176H80z M128,396h-16V252h16v8v128V396z M144,380V268h32c4.418,0,8-3.582,8-8v-32h112v32 c0,4.418,3.582,8,8,8h32v112H144z M352,396v-8V260v-8h16v144H352z M400,412h-16V236h16v16v144V412z M464,380h-48V268h48V380z"></path></g></g></svg>