<svg width="14" height="18" viewBox="0 0 14 18" fill="none" xmlns="http://www.w3.org/2000/svg">
<path d="M7.20438 9.58868C8.50589 9.58868 9.56097 8.5336 9.56097 7.23209C9.56097 5.93057 8.50589 4.87549 7.20438 4.87549C5.90286 4.87549 4.84778 5.93057 4.84778 7.23209C4.84778 8.5336 5.90286 9.58868 7.20438 9.58868Z" stroke="#E96300" stroke-linecap="round" stroke-linejoin="round"/>
<path d="M13.0959 7.23231C13.0959 12.5347 7.20442 16.6587 7.20442 16.6587C7.20442 16.6587 1.31293 12.5347 1.31293 7.23231C1.31293 5.66979 1.93364 4.17127 3.03851 3.0664C4.14338 1.96153 5.6419 1.34082 7.20442 1.34082C8.76694 1.34082 10.2655 1.96153 11.3703 3.0664C12.4752 4.17127 13.0959 5.66979 13.0959 7.23231V7.23231Z" stroke="#E96300" stroke-linecap="round" stroke-linejoin="round"/>
</svg>
