<!-- icon666.com - MILLIONS vector ICONS FREE --><svg id="Capa_1" enable-background="new 0 0 512 512" viewBox="0 0 512 512" xmlns="http://www.w3.org/2000/svg"><g><path d="m508.707 215.489c-10.836-67.5-47.309-126.74-102.7-166.808-55.391-40.068-123.066-56.169-190.571-45.334-67.5 10.836-126.741 47.308-166.809 102.699-40.069 55.392-56.168 123.072-45.334 190.572 7.243 45.117 26.39 87.471 55.371 122.482 3.527 4.262 9.843 4.858 14.106 1.33 4.262-3.528 4.857-9.844 1.329-14.105-26.702-32.259-44.345-71.293-51.021-112.882-9.987-62.216 4.852-124.597 41.784-175.651 36.931-51.055 91.534-84.673 153.75-94.659 62.21-9.99 124.595 4.851 175.651 41.784 51.055 36.931 84.673 91.533 94.659 153.749 9.987 62.216-4.852 124.597-41.784 175.652-36.931 51.055-91.534 84.672-153.75 94.658-52.349 8.402-106.791-1.372-153.307-27.522-4.823-2.711-10.932-1.001-13.643 3.824-2.712 4.822-1 10.932 3.824 13.643 38.646 21.727 82.341 33.028 126.209 33.027 13.392-.001 26.809-1.055 40.093-3.187 67.5-10.836 126.741-47.308 166.809-102.699 40.069-55.393 56.168-123.072 45.334-190.573z"></path><path d="m140.821 244.761c-5.533 0-10.019 4.486-10.019 10.019s4.486 10.019 10.019 10.019h230.4c5.533 0 10.019-4.486 10.019-10.019s-4.486-10.019-10.019-10.019h-105.181v-20.038h97.586c5.533 0 10.019-4.486 10.019-10.019s-4.486-10.019-10.019-10.019h-215.21c-5.533 0-10.019 4.486-10.019 10.019s4.486 10.019 10.019 10.019h97.586v20.038z"></path><path d="m245.955 460.931c.535-5.507-3.496-10.405-9.003-10.94-41.194-4-79.367-20.699-110.39-48.292-29.21-25.979-49.603-59.347-59.243-96.823h178.685v20.039h-114.676c-5.567 0-10.649 3.053-13.261 7.965-2.62 4.926-2.307 10.863.815 15.494 26.61 39.457 68.826 65.558 115.821 71.61 5.491.711 10.51-3.169 11.216-8.657s-3.169-10.51-8.657-11.216c-38.112-4.909-72.654-24.838-96.139-55.159h229.796c-23.485 30.32-58.027 50.25-96.139 55.159-5.488.706-9.363 5.728-8.657 11.216.651 5.053 4.96 8.74 9.924 8.74.427 0 .858-.027 1.292-.083 46.996-6.052 89.211-32.153 115.821-71.611 3.122-4.63 3.435-10.567.815-15.493-2.612-4.912-7.694-7.965-13.261-7.965h-114.674v-20.039h178.685c-9.64 37.476-30.034 70.844-59.243 96.823-31.024 27.593-69.195 44.293-110.39 48.292-5.507.535-9.538 5.433-9.003 10.94.503 5.178 4.863 9.051 9.96 9.051.324 0 .651-.016.98-.048 45.446-4.413 87.554-22.831 121.77-53.263 33.947-30.193 57.099-69.454 66.95-113.537.999-4.467-.071-9.079-2.936-12.656-2.872-3.584-7.15-5.639-11.74-5.639h-390.103c-4.59 0-8.868 2.056-11.74 5.639-2.865 3.577-3.935 8.189-2.936 12.654 9.851 44.085 33.003 83.346 66.951 113.539 34.216 30.433 76.323 48.851 121.769 53.263 5.516.537 10.406-3.496 10.941-9.003z"></path><path d="m345.315 82.783c26.504 13.688 49.896 33.645 67.649 57.714 3.286 4.454 9.558 5.4 14.01 2.116 4.454-3.284 5.401-9.557 2.116-14.01-19.569-26.532-45.358-48.533-74.581-63.625-30.207-15.6-64.263-23.846-98.487-23.846s-68.281 8.246-98.487 23.846c-29.221 15.092-55.011 37.093-74.58 63.625-3.284 4.453-2.337 10.725 2.116 14.01 1.789 1.32 3.872 1.957 5.939 1.957 3.073 0 6.106-1.41 8.071-4.073 17.753-24.069 41.146-44.026 67.65-57.714 24.806-12.812 51.432-19.964 79.274-21.347v29.589c-34.093 2.003-66.053 14.237-92.961 35.691-4.326 3.45-5.037 9.754-1.588 14.08 1.979 2.481 4.896 3.773 7.841 3.773 2.189 0 4.394-.714 6.239-2.185 23.322-18.595 50.964-29.304 80.469-31.28v23.446c0 5.533 4.486 10.019 10.019 10.019s10.019-4.486 10.019-10.019v-23.446c29.504 1.976 57.148 12.685 80.47 31.28 4.327 3.449 10.63 2.739 14.08-1.588 3.449-4.326 2.738-10.63-1.588-14.08-26.91-21.454-58.869-33.688-92.962-35.691v-29.589c27.839 1.384 54.465 8.536 79.272 21.347z"></path><path d="m71.942 165.438c-5.077-2.205-10.977.124-13.18 5.201-10.798 24.882-16.7 51.349-17.541 78.664-.124 4.041 1.419 8.023 4.233 10.927 2.817 2.904 6.751 4.569 10.795 4.569h39.599c8.107 0 14.699-6.351 15.008-14.456.886-23.037 7.314-45.689 18.618-65.697h253.093c11.304 20.01 17.731 42.662 18.618 65.697.312 8.106 6.905 14.456 15.009 14.456h39.598c4.044 0 7.978-1.665 10.795-4.569 2.815-2.904 4.358-6.886 4.233-10.927-.84-27.315-6.742-53.781-17.54-78.663-2.204-5.077-8.107-7.405-13.179-5.203-5.076 2.203-7.405 8.103-5.203 13.179 9.104 20.978 14.366 43.205 15.668 66.146h-29.616c-1.744-25.648-9.51-50.727-22.586-72.82-2.679-4.522-7.626-7.332-12.909-7.332h-258.87c-5.284 0-10.231 2.81-12.912 7.335-13.074 22.089-20.839 47.168-22.584 72.817h-29.614c1.302-22.941 6.565-45.169 15.668-66.145 2.203-5.076-.125-10.977-5.201-13.179z"></path><circle cx="97.997" cy="444.782" r="10.019"></circle></g></svg>