<!-- icon666.com - MILLIONS vector ICONS FREE --><svg viewBox="0 -29 430.08 430" xmlns="http://www.w3.org/2000/svg"><path d="m245.761719 297.644531h-61.441407c-3.773437 0-6.828124-3.054687-6.828124-6.824219v-48.808593c0-3.773438 3.054687-6.828125 6.828124-6.828125 3.769532 0 6.828126 3.054687 6.828126 6.828125v41.980469h47.785156v-41.980469c0-3.773438 3.054687-6.828125 6.828125-6.828125 3.769531 0 6.824219 3.054687 6.824219 6.828125v48.808593c0 3.769532-3.054688 6.824219-6.824219 6.824219zm0 0"></path><path d="m213.480469 248.84375c-68.59375 0-124.398438-55.808594-124.398438-124.398438 0-68.601562 55.808594-124.4062495 124.398438-124.4062495 68.601562 0 124.40625 55.8085935 124.40625 124.4062495 0 68.589844-55.804688 124.398438-124.40625 124.398438zm0-235.152344c-61.066407 0-110.746094 49.6875-110.746094 110.75 0 61.066406 49.679687 110.746094 110.746094 110.746094 61.0625 0 110.753906-49.679688 110.753906-110.746094 0-61.0625-49.6875-110.75-110.753906-110.75zm0 0"></path><path d="m289.488281 131.273438c-3.773437 0-6.828125-3.054688-6.828125-6.828126 0-38.148437-31.03125-69.179687-69.179687-69.179687-38.140625 0-69.175781 31.03125-69.175781 69.179687 0 3.773438-3.054688 6.828126-6.824219 6.828126-3.773438 0-6.828125-3.054688-6.828125-6.828126 0-45.671874 37.152344-82.835937 82.828125-82.835937 45.671875 0 82.835937 37.164063 82.835937 82.835937 0 3.773438-3.054687 6.828126-6.828125 6.828126zm0 0"></path><path d="m213.332031 210.605469c-17.878906 0-32.425781-14.546875-32.425781-32.425781 0-17.878907 14.546875-32.429688 32.425781-32.429688 17.878907 0 32.429688 14.550781 32.429688 32.429688 0 17.878906-14.550781 32.425781-32.429688 32.425781zm0-51.199219c-10.351562 0-18.773437 8.417969-18.773437 18.773438 0 10.351562 8.421875 18.773437 18.773437 18.773437 10.355469 0 18.773438-8.421875 18.773438-18.773437 0-10.355469-8.417969-18.773438-18.773438-18.773438zm0 0"></path><path d="m211.625 154.285156c-3.769531 0-6.824219-3.054687-6.824219-6.828125v-40.957031c0-3.773438 3.054688-6.828125 6.824219-6.828125 3.773438 0 6.828125 3.054687 6.828125 6.828125v40.957031c0 3.773438-3.054687 6.828125-6.828125 6.828125zm0 0"></path><path d="m30.285156 352.257812h-23.457031c-3.773437 0-6.828125-3.054687-6.828125-6.824218v-54.613282c0-3.773437 3.054688-6.828124 6.828125-6.828124h23.457031c3.773438 0 6.828125 3.054687 6.828125 6.828124 0 3.769532-3.054687 6.824219-6.828125 6.824219h-16.632812v40.960938h16.632812c3.773438 0 6.828125 3.054687 6.828125 6.828125 0 3.769531-3.050781 6.824218-6.828125 6.824218zm0 0"></path><path d="m354.988281 352.257812h-286.722656c-3.769531 0-6.824219-3.054687-6.824219-6.824218 0-3.773438 3.054688-6.828125 6.824219-6.828125h286.722656c3.769531 0 6.824219 3.054687 6.824219 6.828125 0 3.769531-3.054688 6.824218-6.824219 6.824218zm0 0"></path><path d="m423.253906 352.257812h-34.132812c-3.773438 0-6.828125-3.054687-6.828125-6.824218 0-3.773438 3.054687-6.828125 6.828125-6.828125h27.304687v-40.960938h-27.304687c-3.773438 0-6.828125-3.054687-6.828125-6.824219 0-3.773437 3.054687-6.828124 6.828125-6.828124h34.132812c3.769532 0 6.824219 3.054687 6.824219 6.828124v54.613282c0 3.769531-3.054687 6.824218-6.824219 6.824218zm0 0"></path><path d="m354.988281 297.644531h-286.722656c-3.769531 0-6.824219-3.054687-6.824219-6.824219 0-3.773437 3.054688-6.828124 6.824219-6.828124h286.722656c3.769531 0 6.824219 3.054687 6.824219 6.828124 0 3.769532-3.054688 6.824219-6.824219 6.824219zm0 0"></path><path d="m372.054688 372.738281c-13.171876 0-23.894532-10.722656-23.894532-23.894531v-61.4375c0-13.171875 10.722656-23.894531 23.894532-23.894531 13.171874 0 23.890624 10.722656 23.890624 23.894531v61.4375c0 13.171875-10.71875 23.894531-23.890624 23.894531zm0-95.574219c-5.648438 0-10.242188 4.59375-10.242188 10.242188v61.4375c0 5.648438 4.59375 10.242188 10.242188 10.242188 5.644531 0 10.238281-4.59375 10.238281-10.242188v-61.4375c0-5.648438-4.59375-10.242188-10.238281-10.242188zm0 0"></path><path d="m51.199219 372.738281c-13.171875 0-23.890625-10.722656-23.890625-23.894531v-61.4375c0-13.171875 10.71875-23.894531 23.890625-23.894531s23.894531 10.722656 23.894531 23.894531v61.4375c0 13.171875-10.722656 23.894531-23.894531 23.894531zm0-95.574219c-5.644531 0-10.238281 4.59375-10.238281 10.242188v61.4375c0 5.648438 4.59375 10.242188 10.238281 10.242188s10.242187-4.59375 10.242187-10.242188v-61.4375c0-5.648438-4.597656-10.242188-10.242187-10.242188zm0 0"></path></svg>