<!-- icon666.com - MILLIONS vector ICONS FREE --><svg viewBox="-16 0 428 428.25045" xmlns="http://www.w3.org/2000/svg"><path d="m389.246094 395.945312h-51.570313c-3.765625 0-6.824219-3.054687-6.824219-6.824218 0-3.773438 3.058594-6.828125 6.824219-6.828125h44.742188v-102.398438h-47.78125c-3.769531 0-6.828125-3.054687-6.828125-6.828125 0-3.769531 3.058594-6.828125 6.828125-6.828125h54.609375c3.765625 0 6.824218 3.058594 6.824218 6.828125v116.054688c0 3.769531-3.058593 6.824218-6.824218 6.824218zm0 0"></path><path d="m198.28125 428.25c-36.898438 0-74.46875-4.21875-99.367188-34.824219-2.375-2.925781-1.933593-7.222656.988282-9.601562 2.917968-2.382813 7.226562-1.9375 9.601562.988281 21.296875 26.179688 55.257813 29.789062 88.777344 29.789062 33.523438 0 67.484375-3.609374 88.777344-29.789062 2.378906-2.925781 6.691406-3.371094 9.601562-.988281 2.925782 2.378906 3.367188 6.675781.992188 9.601562-24.902344 30.605469-62.476563 34.824219-99.371094 34.824219zm0 0"></path><path d="m59.316406 395.945312h-52.363281c-3.769531 0-6.828125-3.054687-6.828125-6.824218v-116.054688c0-3.769531 3.058594-6.828125 6.828125-6.828125h52.789063c3.769531 0 6.828124 3.058594 6.828124 6.828125 0 3.773438-3.058593 6.828125-6.828124 6.828125h-45.964844v102.398438h45.539062c3.769532 0 6.824219 3.054687 6.824219 6.828125 0 3.769531-3.054687 6.824218-6.824219 6.824218zm0 0"></path><path d="m104.214844 279.894531c-2.484375 0-4.878906-1.351562-6.082032-3.714843-1.71875-3.359376-.390624-7.472657 2.964844-9.191407 10.371094-5.308593 28.992188-14.84375 49.214844-21.015625v-34.347656c0-3.769531 3.058594-6.824219 6.824219-6.824219h88.75c3.765625 0 6.824219 3.054688 6.824219 6.824219v36.085938c13.472656 5.589843 31.355468 13.039062 42.921874 19.367187 3.304688 1.808594 4.519532 5.953125 2.710938 9.261719-1.800781 3.316406-5.949219 4.539062-9.265625 2.714844-11.273437-6.167969-29.503906-13.714844-42.8125-19.234376l-3-1.238281c-2.546875-1.0625-4.207031-3.550781-4.207031-6.308593v-33.820313h-75.09375v32.652344c0 3.078125-2.0625 5.777343-5.035156 6.585937-20.753907 5.652344-40.828126 15.933594-51.613282 21.453125-.996094.507813-2.054687.75-3.101562.75zm0 0"></path><path d="m218.578125 170.667969h-40.960937c-3.765626 0-6.824219-3.054688-6.824219-6.828125v-54.613282c0-3.773437 3.058593-6.828124 6.824219-6.828124h40.960937c3.769531 0 6.828125 3.054687 6.828125 6.828124v54.613282c0 3.773437-3.058594 6.828125-6.828125 6.828125zm-34.132813-13.65625h27.304688v-40.957031h-27.304688zm0 0"></path><path d="m250.433594 218.453125h-104.671875c-12.546875 0-22.757813-10.207031-22.757813-22.753906v-15.933594c0-12.546875 10.210938-22.753906 22.757813-22.753906h104.671875c12.550781 0 22.757812 10.207031 22.757812 22.753906v15.933594c0 12.542969-10.207031 22.753906-22.757812 22.753906zm-104.671875-47.785156c-5.019531 0-9.101563 4.078125-9.101563 9.097656v15.933594c0 5.023437 4.082032 9.101562 9.101563 9.101562h104.671875c5.023437 0 9.105468-4.078125 9.105468-9.101562v-15.933594c0-5.019531-4.082031-9.097656-9.105468-9.097656zm0 0"></path><path d="m320.546875 416.425781h-12.789063c-11.53125 0-20.914062-9.378906-20.914062-20.914062v-122.011719c0-11.535156 9.382812-20.914062 20.914062-20.914062h12.789063c11.527344 0 20.910156 9.378906 20.910156 20.914062v122.011719c0 11.535156-9.382812 20.914062-20.910156 20.914062zm-12.789063-150.1875c-4.003906 0-7.257812 3.261719-7.257812 7.261719v122.011719c0 4 3.253906 7.261719 7.257812 7.261719h12.789063c4.003906 0 7.257813-3.261719 7.257813-7.261719v-122.011719c0-4-3.253907-7.261719-7.257813-7.261719zm0 0"></path><path d="m88.4375 416.425781h-12.785156c-11.53125 0-20.914063-9.378906-20.914063-20.914062v-122.011719c0-11.535156 9.382813-20.914062 20.914063-20.914062h12.785156c11.53125 0 20.914062 9.378906 20.914062 20.914062v122.011719c0 11.535156-9.382812 20.914062-20.914062 20.914062zm-12.785156-150.1875c-4.003906 0-7.261719 3.261719-7.261719 7.261719v122.011719c0 4 3.257813 7.261719 7.261719 7.261719h12.785156c4.003906 0 7.261719-3.261719 7.261719-7.261719v-122.011719c0-4-3.257813-7.261719-7.261719-7.261719zm0 0"></path><path d="m344.871094 61.441406h-293.546875c-13.171875 0-23.890625-10.722656-23.890625-23.894531v-13.652344c0-13.171875 10.71875-23.894531 23.890625-23.894531h293.546875c13.171875 0 23.894531 10.722656 23.894531 23.894531v13.652344c0 13.171875-10.722656 23.894531-23.894531 23.894531zm-293.546875-47.789062c-5.644531 0-10.238281 4.59375-10.238281 10.242187v13.652344c0 5.644531 4.59375 10.238281 10.238281 10.238281h293.546875c5.644531 0 10.242187-4.59375 10.242187-10.238281v-13.652344c0-5.648437-4.597656-10.242187-10.242187-10.242187zm0 0"></path><path d="m230.308594 116.054688h-62.886719c-20.375 0-37.589844-15.941407-37.589844-34.8125v-26.628907c0-3.773437 3.058594-6.828125 6.828125-6.828125h122.878906c3.769532 0 6.824219 3.054688 6.824219 6.828125v26.628907c0 19.1875-16.171875 34.8125-36.054687 34.8125zm-86.824219-54.613282v19.800782c0 12.113281 12.636719 21.15625 23.9375 21.15625h62.886719c12.144531 0 22.402344-9.691407 22.402344-21.15625v-19.800782zm0 0"></path><path d="m198.28125 386.527344c-51.980469 0-92.699219-24.882813-92.699219-56.640625 0-31.761719 40.71875-56.636719 92.699219-56.636719 51.984375 0 92.703125 24.875 92.703125 56.636719 0 31.757812-40.71875 56.640625-92.703125 56.640625zm0-99.621094c-42.847656 0-79.046875 19.679688-79.046875 42.980469 0 23.296875 36.199219 42.984375 79.046875 42.984375 42.851562 0 79.050781-19.6875 79.050781-42.984375 0-23.300781-36.203125-42.980469-79.050781-42.980469zm0 0"></path><path d="m143.484375 368.640625c-3.765625 0-6.824219-3.054687-6.824219-6.828125v-68.265625c0-3.773437 3.058594-6.828125 6.824219-6.828125 3.769531 0 6.828125 3.054688 6.828125 6.828125v68.265625c0 3.773438-3.058594 6.828125-6.828125 6.828125zm0 0"></path><path d="m198.28125 386.527344c-3.761719 0-6.816406-3.050782-6.824219-6.816406l-.183593-99.808594c-.007813-3.769532 3.042968-6.832032 6.8125-6.839844h.011718c3.765625 0 6.820313 3.050781 6.828125 6.8125l.183594 99.808594c.007813 3.769531-3.042969 6.832031-6.8125 6.839844-.003906.003906-.011719.003906-.015625.003906zm0 0"></path><path d="m245.886719 375.464844c-3.769531 0-6.828125-3.054688-6.828125-6.824219v-75.09375c0-3.773437 3.058594-6.828125 6.828125-6.828125 3.765625 0 6.824219 3.054688 6.824219 6.828125v75.09375c0 3.769531-3.058594 6.824219-6.824219 6.824219zm0 0"></path></svg>