<svg width="64" height="64" viewBox="0 0 64 64" fill="none" xmlns="http://www.w3.org/2000/svg">
<path d="M16.336 36.7998L8 45.3331L14.6667 49.3331L18.6667 55.9998L29.064 45.0798" stroke="#496C77" stroke-width="2" stroke-linecap="round" stroke-linejoin="round"/>
<path d="M16.336 36.7998L8 45.3331L14.6667 49.3331L18.6667 55.9998L29.064 45.0798" stroke="#276771" stroke-width="2" stroke-linecap="round" stroke-linejoin="round"/>
<path d="M34.936 45.0798L45.3334 55.9998L49.3334 49.3331L56 45.3331L47.664 36.7998" stroke="#496C77" stroke-width="2" stroke-linecap="round" stroke-linejoin="round"/>
<path d="M34.936 45.0798L45.3334 55.9998L49.3334 49.3331L56 45.3331L47.664 36.7998" stroke="#276771" stroke-width="2" stroke-linecap="round" stroke-linejoin="round"/>
<path d="M45.1992 13.4673C52.489 20.7571 52.489 32.5762 45.1992 39.866C37.9094 47.1558 26.0904 47.1558 18.8006 39.866C11.5108 32.5762 11.5108 20.7571 18.8006 13.4673C26.0904 6.17755 37.9094 6.17755 45.1992 13.4673" stroke="#496C77" stroke-width="2" stroke-linecap="round" stroke-linejoin="round"/>
<path d="M45.1992 13.4673C52.489 20.7571 52.489 32.5762 45.1992 39.866C37.9094 47.1558 26.0904 47.1558 18.8006 39.866C11.5108 32.5762 11.5108 20.7571 18.8006 13.4673C26.0904 6.17755 37.9094 6.17755 45.1992 13.4673" stroke="#276771" stroke-width="2" stroke-linecap="round" stroke-linejoin="round"/>
<path fill-rule="evenodd" clip-rule="evenodd" d="M31.9974 33.5578L36.7894 36.0751C37.7227 36.5658 38.8134 35.7738 38.6347 34.7338L37.7201 29.3978L41.5974 25.6218C42.3521 24.8858 41.9361 23.6031 40.8934 23.4511L35.5361 22.6724L33.1414 17.8164C32.6747 16.8698 31.3281 16.8698 30.8614 17.8164L28.4667 22.6724L23.1067 23.4538C22.0641 23.6058 21.6481 24.8884 22.4027 25.6244L26.2801 29.4004L25.3654 34.7364C25.1867 35.7764 26.2774 36.5684 27.2107 36.0778L32.0027 33.5604H31.9974V33.5578Z" stroke="#496C77" stroke-width="2" stroke-linecap="round" stroke-linejoin="round"/>
<path fill-rule="evenodd" clip-rule="evenodd" d="M31.9974 33.5578L36.7894 36.0751C37.7227 36.5658 38.8134 35.7738 38.6347 34.7338L37.7201 29.3978L41.5974 25.6218C42.3521 24.8858 41.9361 23.6031 40.8934 23.4511L35.5361 22.6724L33.1414 17.8164C32.6747 16.8698 31.3281 16.8698 30.8614 17.8164L28.4667 22.6724L23.1067 23.4538C22.0641 23.6058 21.6481 24.8884 22.4027 25.6244L26.2801 29.4004L25.3654 34.7364C25.1867 35.7764 26.2774 36.5684 27.2107 36.0778L32.0027 33.5604H31.9974V33.5578Z" stroke="#276771" stroke-width="2" stroke-linecap="round" stroke-linejoin="round"/>
</svg>
