<svg width="64" height="64" viewBox="0 0 64 64" fill="none" xmlns="http://www.w3.org/2000/svg">
<path fill-rule="evenodd" clip-rule="evenodd" d="M36 36.5329L17.8667 54.6663C15.4667 57.0663 11.7333 57.0663 9.33333 54.6663C6.93333 52.2663 6.93333 48.5329 9.33333 46.1329L27.4667 27.9996C25.3333 22.6663 26.6667 16.5329 30.9333 12.2663C35.4667 7.73292 42.1333 6.93292 47.4667 9.06625C47.7333 9.06625 47.7333 9.33292 47.4667 9.59959L37.8667 19.1996L44.8 26.1329L54.6667 16.5329C54.6667 16.5329 54.9333 16.5329 55.2 16.5329C57.8667 21.8663 56.5333 28.5329 52 33.0662C47.4667 37.3329 41.3333 38.3996 36 36.5329Z" stroke="#496C77" stroke-width="2" stroke-linecap="round" stroke-linejoin="round"/>
<path fill-rule="evenodd" clip-rule="evenodd" d="M36 36.5329L17.8667 54.6663C15.4667 57.0663 11.7333 57.0663 9.33333 54.6663C6.93333 52.2663 6.93333 48.5329 9.33333 46.1329L27.4667 27.9996C25.3333 22.6663 26.6667 16.5329 30.9333 12.2663C35.4667 7.73292 42.1333 6.93292 47.4667 9.06625C47.7333 9.06625 47.7333 9.33292 47.4667 9.59959L37.8667 19.1996L44.8 26.1329L54.6667 16.5329C54.6667 16.5329 54.9333 16.5329 55.2 16.5329C57.8667 21.8663 56.5333 28.5329 52 33.0662C47.4667 37.3329 41.3333 38.3996 36 36.5329Z" stroke="#276771" stroke-width="2" stroke-linecap="round" stroke-linejoin="round"/>
</svg>
