<svg width="64" height="64" viewBox="0 0 64 64" fill="none" xmlns="http://www.w3.org/2000/svg">
<path d="M42.1528 21.8476C42.5391 22.234 42.5391 22.8604 42.1528 23.2468C41.7664 23.6331 41.14 23.6331 40.7536 23.2468C40.3673 22.8604 40.3673 22.234 40.7536 21.8476C41.14 21.4613 41.7664 21.4613 42.1528 21.8476" stroke="#496C77" stroke-width="2" stroke-linecap="round" stroke-linejoin="round"/>
<path d="M42.1528 21.8476C42.5391 22.234 42.5391 22.8604 42.1528 23.2468C41.7664 23.6331 41.14 23.6331 40.7536 23.2468C40.3673 22.8604 40.3673 22.234 40.7536 21.8476C41.14 21.4613 41.7664 21.4613 42.1528 21.8476" stroke="#276771" stroke-width="2" stroke-linecap="round" stroke-linejoin="round"/>
<path fill-rule="evenodd" clip-rule="evenodd" d="M36.0319 10.667H47.7253C50.8239 10.667 53.3333 13.1763 53.3333 16.2723V27.9657C53.3333 29.4537 52.7413 30.8777 51.6906 31.931L29.2639 54.3577C27.0746 56.547 23.5253 56.547 21.3359 54.3577L9.64261 42.6643C7.45328 40.475 7.45328 36.9257 9.64261 34.7363L32.0693 12.3097C33.1199 11.259 34.5466 10.667 36.0319 10.667Z" stroke="#496C77" stroke-width="2" stroke-linecap="round" stroke-linejoin="round"/>
<path fill-rule="evenodd" clip-rule="evenodd" d="M36.0319 10.667H47.7253C50.8239 10.667 53.3333 13.1763 53.3333 16.2723V27.9657C53.3333 29.4537 52.7413 30.8777 51.6906 31.931L29.2639 54.3577C27.0746 56.547 23.5253 56.547 21.3359 54.3577L9.64261 42.6643C7.45328 40.475 7.45328 36.9257 9.64261 34.7363L32.0693 12.3097C33.1199 11.259 34.5466 10.667 36.0319 10.667Z" stroke="#276771" stroke-width="2" stroke-linecap="round" stroke-linejoin="round"/>
<path d="M15.4933 28.9072L35.0933 48.5072" stroke="#496C77" stroke-width="2" stroke-linecap="round" stroke-linejoin="round"/>
<path d="M15.4933 28.9072L35.0933 48.5072" stroke="#276771" stroke-width="2" stroke-linecap="round" stroke-linejoin="round"/>
</svg>
